<?xml version="1.0" encoding="utf-8"?>
<!-- Generator: Adobe Illustrator 26.0.2, SVG Export Plug-In . SVG Version: 6.00 Build 0)  -->
<svg version="1.1" id="Layer_1" xmlns="http://www.w3.org/2000/svg" xmlns:xlink="http://www.w3.org/1999/xlink" x="0px" y="0px"
	 viewBox="0 0 595.3 223.9" style="enable-background:new 0 0 595.3 223.9;" xml:space="preserve">
<style type="text/css">
	.st0{fill:none;stroke:#ED1C24;stroke-width:3.0031;stroke-miterlimit:10;}
	.st1{fill:#F37121;}
	.st2{fill:#FFFFFF;}
</style>
<g>
	<path class="st0" d="M69.9,140.3"/>
	<path class="st1" d="M20,74.4v36c0,16.5,13.4,29.9,29.9,29.9l20,0v57.1H86v-93.1c0-16.5-13.4-29.9-29.9-29.9H20z M36.1,90.4h18.5
		c8.5,0,15.3,6.9,15.3,15.3v18.5H51.4c-8.5,0-15.3-6.9-15.3-15.3V90.4z"/>
	<path class="st2" d="M93.7,140.9v56.5h16.1v-20.5l20,0c16.5,0,29.9-13.4,29.9-29.9v-36h-36C107.1,110.9,93.7,124.3,93.7,140.9z
		 M109.8,142.3c0-8.5,6.9-15.3,15.3-15.3h18.5v18.5c0,8.5-6.9,15.3-15.3,15.3h-18.5V142.3z"/>
	<path class="st0" d="M116.1,101.9"/>
	<path class="st1" d="M93.7,55.5l0,63.3c5.6-7.9,9.1-9.9,16.1-12.7l0-14.5l20,0c16.5,0,29.9-13.4,29.9-29.9v-36h-36
		C107.1,25.6,93.7,39,93.7,55.5z M109.8,57c0-8.5,6.9-15.3,15.3-15.3h18.5v18.5c0,8.5-6.9,15.3-15.3,15.3h-18.5V57z"/>
</g>
<path class="st2" d="M232.2,94.9v79.9h-24.3V94.9h-28.4V74.2h81.2v20.7H232.2z"/>
<path class="st2" d="M316.5,140.3c0,0.9,0,1.9,0,2.8c0,0.9-0.1,1.9-0.1,2.7h-51.3c0.2,2,0.8,3.8,1.8,5.4c1,1.6,2.3,3,3.8,4.2
	s3.3,2.1,5.3,2.8c1.9,0.7,4,1,6,1c3.7,0,6.8-0.7,9.4-2.1c2.6-1.4,4.6-3.1,6.3-5.3l16.2,10.2c-3.3,4.8-7.7,8.6-13.2,11.2
	c-5.4,2.6-11.8,3.9-19,3.9c-5.3,0-10.3-0.8-15.1-2.5c-4.7-1.7-8.9-4.1-12.4-7.3c-3.6-3.2-6.4-7.1-8.4-11.7c-2-4.6-3.1-9.9-3.1-15.9
	c0-5.8,1-11,3-15.7c2-4.7,4.7-8.7,8.1-11.9c3.4-3.3,7.4-5.8,12.1-7.6c4.6-1.8,9.7-2.7,15.1-2.7c5.2,0,10,0.9,14.4,2.6
	s8.1,4.3,11.2,7.6c3.1,3.3,5.6,7.3,7.3,12.1C315.6,128.8,316.5,134.2,316.5,140.3z M295,131.3c0-3.7-1.2-6.9-3.5-9.5
	c-2.3-2.7-5.8-4-10.4-4c-2.3,0-4.4,0.4-6.3,1.1c-1.9,0.7-3.6,1.7-5,2.9c-1.4,1.2-2.6,2.7-3.4,4.3c-0.9,1.7-1.3,3.4-1.4,5.2H295z"/>
<path class="st2" d="M451.2,140.3c0,0.9,0,1.9,0,2.8c0,0.9-0.1,1.9-0.1,2.7h-51.3c0.2,2,0.8,3.8,1.8,5.4c1,1.6,2.3,3,3.8,4.2
	s3.3,2.1,5.3,2.8c1.9,0.7,4,1,6,1c3.7,0,6.8-0.7,9.4-2.1c2.6-1.4,4.6-3.1,6.3-5.3l16.2,10.2c-3.3,4.8-7.7,8.6-13.2,11.2
	c-5.4,2.6-11.8,3.9-19,3.9c-5.3,0-10.3-0.8-15.1-2.5c-4.7-1.7-8.9-4.1-12.4-7.3c-3.6-3.2-6.4-7.1-8.4-11.7c-2-4.6-3.1-9.9-3.1-15.9
	c0-5.8,1-11,3-15.7c2-4.7,4.7-8.7,8.1-11.9c3.4-3.3,7.4-5.8,12.1-7.6c4.6-1.8,9.7-2.7,15.1-2.7c5.2,0,10,0.9,14.4,2.6
	s8.1,4.3,11.2,7.6c3.1,3.3,5.6,7.3,7.3,12.1C450.4,128.8,451.2,134.2,451.2,140.3z M429.8,131.3c0-3.7-1.2-6.9-3.5-9.5
	c-2.3-2.7-5.8-4-10.4-4c-2.3,0-4.4,0.4-6.3,1.1c-1.9,0.7-3.6,1.7-5,2.9c-1.4,1.2-2.6,2.7-3.4,4.3c-0.9,1.7-1.3,3.4-1.4,5.2H429.8z"
	/>
<path class="st2" d="M551.7,174.8v-38.7c0-2-0.1-3.9-0.4-5.8c-0.3-1.9-0.8-3.4-1.6-4.8c-0.8-1.3-1.8-2.4-3.1-3.2
	c-1.3-0.8-3-1.2-5-1.2c-2,0-3.7,0.4-5.2,1.3c-1.5,0.8-2.7,2-3.7,3.4c-1,1.4-1.7,3.1-2.2,4.9c-0.5,1.8-0.7,3.8-0.7,5.8v38.2h-23.3
	v-40.4c0-4.1-0.8-7.3-2.4-9.7c-1.6-2.4-4.2-3.5-7.7-3.5c-3.7,0-6.6,1.5-8.6,4.4c-2,2.9-3.1,6.5-3.1,10.8v38.4h-23.5V104h12.8
	c5.4,0,9.8,4.4,9.8,9.8v0h0.3c0.9-1.5,1.9-3,3.2-4.4c1.3-1.4,2.8-2.7,4.6-3.8c1.8-1.1,3.8-2,6-2.6c2.2-0.7,4.7-1,7.3-1
	c5.1,0,9.5,1,13,3.1c3.6,2.1,6.3,5.1,8.3,9c2.4-3.7,5.4-6.6,9.1-8.8c3.7-2.2,8.2-3.3,13.5-3.3c4.8,0,8.9,0.9,12.2,2.6s5.9,4,7.9,6.8
	c2,2.8,3.4,5.9,4.3,9.4c0.9,3.5,1.3,6.8,1.3,10.2v43.8H551.7z"/>
<g>
	<path class="st2" d="M371.7,123.1c-1-0.3-2.1-0.5-3-0.6c-1-0.1-2-0.1-2.9-0.1c-3.1,0-5.7,0.6-7.9,1.7c-2.1,1.1-3.8,2.5-5.1,4.1
		c-1.3,1.6-2.2,3.3-2.8,5.2c-0.6,1.9-0.8,3.5-0.8,4.9v36.2H326V104h12.2c5.6,0,10.2,4.6,10.2,10.2v0h0.3c1.8-3.6,4.3-6.6,7.6-8.8
		c3.3-2.3,7.1-3.4,11.5-3.4c0.9,0,1.9,0,2.8,0.1c0.9,0.1,1.6,0.2,2.2,0.4L371.7,123.1z"/>
</g>
</svg>
